<svg xmlns="http://www.w3.org/2000/svg" viewBox="0 0 620 360"><defs><linearGradient id="bg" x1="0" y1="0" x2="1" y2="1"><stop offset="0" stop-color="#4c1d95"/><stop offset="1" stop-color="#7c3aed"/></linearGradient><linearGradient id="g" x1="0" y1="0" x2="1" y2="1"><stop offset="0" stop-color="#7c3aed"/><stop offset="1" stop-color="#ddd6fe"/></linearGradient><linearGradient id="g2" x1="1" y1="0" x2="0" y2="1"><stop offset="0" stop-color="white"/><stop offset="1" stop-color="#ddd6fe"/></linearGradient></defs><rect width="620" height="360" rx="28" fill="url(#bg)"/><circle cx="520" cy="60" r="100" fill="white" opacity=".08"/><rect x="155" y="145" width="100" height="185" rx="10" fill="url(#g)"/><rect x="275" y="95" width="120" height="235" rx="10" fill="url(#g2)"/><rect x="415" y="170" width="75" height="160" rx="10" fill="white" opacity=".85"/><g fill="#0f172a" opacity=".65"><rect x="178" y="170" width="25" height="25"/><rect x="215" y="170" width="25" height="25"/><rect x="178" y="210" width="25" height="25"/><rect x="215" y="210" width="25" height="25"/><rect x="302" y="125" width="25" height="25"/><rect x="338" y="125" width="25" height="25"/><rect x="302" y="165" width="25" height="25"/><rect x="338" y="165" width="25" height="25"/></g><text x="34" y="38" font-family="Arial,sans-serif" font-size="22" font-weight="700" fill="white">Monthly Carbon Goal</text><text x="34" y="62" font-family="Arial,sans-serif" font-size="13" fill="white" opacity=".8">Goals</text></svg>